<svg width="103" height="19" viewBox="0 0 103 19" fill="none" xmlns="http://www.w3.org/2000/svg">
<path fill-rule="evenodd" clip-rule="evenodd" d="M12.8592 9.91304H11.4272L7.36364 17.7132L8.07962 19H17.182L18 18.1326V13.8605H16.364V17.2652H9.46602L12.1432 12.1263L13.7671 15.2435L15.1991 14.4046L12.8592 9.91304Z" fill="#1CCFC3"/>
<path fill-rule="evenodd" clip-rule="evenodd" d="M0 0.845197L0.824176 0H17.1758L18 0.845197V8.69701H16.3516V1.69039H1.64835V17.3096H5.47675V19H0.824176L0 18.1548V0.845197Z" fill="#1CCFC3"/>
<path fill-rule="evenodd" clip-rule="evenodd" d="M16.3636 12.3913V9.91304H18V12.3913H16.3636Z" fill="#1CCFC3"/>
<path d="M96.6401 16.95V13.07H92.7601V10.81H96.6401V6.95001H98.9001V10.81H102.76V13.07H98.9001V16.95H96.6401Z" fill="white"/>
<path d="M84.0786 17.19C83.3186 17.19 82.6586 17.0634 82.0986 16.81C81.5386 16.5567 81.1053 16.1967 80.7986 15.73C80.492 15.25 80.3386 14.6967 80.3386 14.07C80.3386 13.47 80.472 12.9367 80.7386 12.47C81.0053 11.99 81.4186 11.59 81.9786 11.27C82.5386 10.95 83.2453 10.7234 84.0986 10.59L87.6586 10.01V12.01L84.5986 12.53C84.0786 12.6234 83.692 12.79 83.4386 13.03C83.1853 13.27 83.0586 13.5834 83.0586 13.97C83.0586 14.3434 83.1986 14.6434 83.4786 14.87C83.772 15.0834 84.132 15.19 84.5586 15.19C85.1053 15.19 85.5853 15.0767 85.9986 14.85C86.4253 14.61 86.752 14.2834 86.9786 13.87C87.2186 13.4567 87.3386 13.0034 87.3386 12.51V9.71002C87.3386 9.24335 87.152 8.85668 86.7786 8.55002C86.4186 8.23002 85.9386 8.07002 85.3386 8.07002C84.7786 8.07002 84.2786 8.22335 83.8386 8.53002C83.412 8.82335 83.0986 9.21668 82.8986 9.71002L80.7586 8.67002C80.972 8.09668 81.3053 7.60335 81.7586 7.19002C82.2253 6.76335 82.772 6.43002 83.3986 6.19002C84.0253 5.95002 84.7053 5.83002 85.4386 5.83002C86.332 5.83002 87.1186 5.99668 87.7986 6.33002C88.4786 6.65002 89.0053 7.10335 89.3786 7.69002C89.7653 8.26335 89.9586 8.93668 89.9586 9.71002V16.95H87.4786V15.09L88.0386 15.05C87.7586 15.5167 87.4253 15.91 87.0386 16.23C86.652 16.5367 86.212 16.7767 85.7186 16.95C85.2253 17.11 84.6786 17.19 84.0786 17.19Z" fill="white"/>
<path d="M75.7395 16.95V6.06999H78.3595V16.95H75.7395ZM75.7395 4.84999V2.04999H78.3595V4.84999H75.7395Z" fill="white"/>
<path d="M68.259 16.95V6.07001H70.719V8.49001L70.519 8.13001C70.7724 7.31668 71.1657 6.75001 71.699 6.43001C72.2457 6.11001 72.899 5.95001 73.659 5.95001H74.299V8.27001H73.359C72.6124 8.27001 72.0124 8.50335 71.559 8.97001C71.1057 9.42335 70.879 10.0633 70.879 10.89V16.95H68.259Z" fill="white"/>
<path d="M61.173 17.19C60.053 17.19 59.073 16.9367 58.233 16.43C57.393 15.9234 56.7397 15.2367 56.273 14.37C55.8063 13.5034 55.573 12.5434 55.573 11.49C55.573 10.3967 55.8063 9.43002 56.273 8.59002C56.753 7.73668 57.3997 7.06335 58.213 6.57002C59.0397 6.07668 59.9597 5.83002 60.973 5.83002C61.8263 5.83002 62.573 5.97002 63.213 6.25002C63.8663 6.53002 64.4197 6.91668 64.873 7.41002C65.3263 7.90335 65.673 8.47002 65.913 9.11002C66.153 9.73668 66.273 10.4167 66.273 11.15C66.273 11.3367 66.2597 11.53 66.233 11.73C66.2197 11.93 66.1863 12.1034 66.133 12.25H57.733V10.25H64.653L63.413 11.19C63.533 10.5767 63.4997 10.03 63.313 9.55002C63.1397 9.07002 62.8463 8.69002 62.433 8.41002C62.033 8.13002 61.5463 7.99002 60.973 7.99002C60.4263 7.99002 59.9397 8.13002 59.513 8.41002C59.0863 8.67668 58.7597 9.07668 58.533 9.61002C58.3197 10.13 58.2397 10.7634 58.293 11.51C58.2397 12.1767 58.3263 12.77 58.553 13.29C58.793 13.7967 59.1397 14.19 59.593 14.47C60.0597 14.75 60.593 14.89 61.193 14.89C61.793 14.89 62.2997 14.7634 62.713 14.51C63.1397 14.2567 63.473 13.9167 63.713 13.49L65.833 14.53C65.6197 15.05 65.2863 15.51 64.833 15.91C64.3797 16.31 63.8397 16.6234 63.213 16.85C62.5997 17.0767 61.9197 17.19 61.173 17.19Z" fill="white"/>
<path d="M50.9739 16.95V1.81H53.5939V16.95H50.9739Z" fill="white"/>
<path d="M42.6724 17.19C41.9124 17.19 41.2524 17.0634 40.6924 16.81C40.1324 16.5567 39.699 16.1967 39.3924 15.73C39.0857 15.25 38.9324 14.6967 38.9324 14.07C38.9324 13.47 39.0657 12.9367 39.3324 12.47C39.599 11.99 40.0124 11.59 40.5724 11.27C41.1324 10.95 41.839 10.7234 42.6924 10.59L46.2524 10.01V12.01L43.1924 12.53C42.6724 12.6234 42.2857 12.79 42.0324 13.03C41.779 13.27 41.6524 13.5834 41.6524 13.97C41.6524 14.3434 41.7924 14.6434 42.0724 14.87C42.3657 15.0834 42.7257 15.19 43.1524 15.19C43.699 15.19 44.179 15.0767 44.5924 14.85C45.019 14.61 45.3457 14.2834 45.5724 13.87C45.8124 13.4567 45.9324 13.0034 45.9324 12.51V9.71002C45.9324 9.24335 45.7457 8.85668 45.3724 8.55002C45.0124 8.23002 44.5324 8.07002 43.9324 8.07002C43.3724 8.07002 42.8724 8.22335 42.4324 8.53002C42.0057 8.82335 41.6924 9.21668 41.4924 9.71002L39.3524 8.67002C39.5657 8.09668 39.899 7.60335 40.3524 7.19002C40.819 6.76335 41.3657 6.43002 41.9924 6.19002C42.619 5.95002 43.299 5.83002 44.0324 5.83002C44.9257 5.83002 45.7124 5.99668 46.3924 6.33002C47.0724 6.65002 47.599 7.10335 47.9724 7.69002C48.359 8.26335 48.5524 8.93668 48.5524 9.71002V16.95H46.0724V15.09L46.6324 15.05C46.3524 15.5167 46.019 15.91 45.6324 16.23C45.2457 16.5367 44.8057 16.7767 44.3124 16.95C43.819 17.11 43.2724 17.19 42.6724 17.19Z" fill="white"/>
<path d="M30.5 17.19C29.4333 17.19 28.4467 16.9967 27.54 16.61C26.6333 16.2233 25.84 15.6833 25.16 14.99C24.48 14.2967 23.9467 13.4833 23.56 12.55C23.1867 11.6167 23 10.5967 23 9.49C23 8.38333 23.18 7.36333 23.54 6.43C23.9133 5.48333 24.4333 4.67 25.1 3.99C25.78 3.29666 26.5733 2.76333 27.48 2.39C28.3867 2.00333 29.3733 1.81 30.44 1.81C31.5067 1.81 32.46 1.99 33.3 2.35C34.1533 2.71 34.8733 3.19 35.46 3.79C36.0467 4.37666 36.4667 5.02333 36.72 5.73L34.3 6.89C34.02 6.11666 33.5467 5.49 32.88 5.01C32.2133 4.53 31.4 4.29 30.44 4.29C29.5067 4.29 28.68 4.51 27.96 4.95C27.2533 5.39 26.7 5.99666 26.3 6.77C25.9133 7.54333 25.72 8.45 25.72 9.49C25.72 10.53 25.92 11.4433 26.32 12.23C26.7333 13.0033 27.3 13.61 28.02 14.05C28.74 14.49 29.5667 14.71 30.5 14.71C31.26 14.71 31.96 14.5633 32.6 14.27C33.24 13.9633 33.7533 13.5367 34.14 12.99C34.5267 12.43 34.72 11.77 34.72 11.01V9.87L35.96 10.95H30.44V8.65H37.44V10.15C37.44 11.2967 37.2467 12.31 36.86 13.19C36.4733 14.07 35.9467 14.81 35.28 15.41C34.6267 15.9967 33.8867 16.4433 33.06 16.75C32.2333 17.0433 31.38 17.19 30.5 17.19Z" fill="white"/>
</svg>
